<svg xmlns="http://www.w3.org/2000/svg" version="1.1" width="600px" height="600px" viewBox="0 0 200 200" style="overflow:hidden!important;"><defs id="SvgjsDefs3215"><radialGradient id="SvgjsRadialGradient3281" cx="100" cy="114" r="41" gradientUnits="userSpaceOnUse" class="svga-on-canvas-facehighlight-gradient-single-0"><stop id="SvgjsStop3282" stop-opacity="0.5" stop-color="#ffe4d6" offset="0" ></stop><stop id="SvgjsStop3283" stop-opacity="0" stop-color="#f0c7b1" offset="0.9" ></stop></radialGradient><radialGradient id="SvgjsRadialGradient3285" cx="100" cy="54" r="37" gradientUnits="userSpaceOnUse" class="svga-on-canvas-facehighlight-gradient-single-1"><stop id="SvgjsStop3286" stop-opacity="0.5" stop-color="#ffe4d6" offset="0" ></stop><stop id="SvgjsStop3287" stop-opacity="0" stop-color="#f0c7b1" offset="0.9" ></stop></radialGradient><linearGradient id="SvgjsLinearGradient3453" x1="100" y1="171" x2="100" y2="128" gradientUnits="userSpaceOnUse" class="svga-on-canvas-chinshadow-gradient-single-0"><stop id="SvgjsStop3454" stop-opacity="0.8" stop-color="#e1ac8f" offset="0" ></stop><stop id="SvgjsStop3455" stop-opacity="1" stop-color="#c27b55" offset="0.7" ></stop></linearGradient><linearGradient id="SvgjsLinearGradient3543" x1="100" y1="142" x2="100" y2="139" gradientUnits="userSpaceOnUse" class="svga-on-canvas-mouth-gradient-single-0"><stop id="SvgjsStop3544" stop-opacity="1" stop-color="#e8b9a0" offset="0.1" ></stop><stop id="SvgjsStop3545" stop-opacity="1" stop-color="#e1ac8f" offset="1" ></stop></linearGradient><radialGradient id="SvgjsRadialGradient3984" cx="129.041" cy="83.945" r="15.117" gradientTransform="matrix(-0.9945 0.1042 0.1042 0.9945 192.8281 -12.4633)" gradientUnits="userSpaceOnUse" class="svga-on-canvas-eyesback-gradient-left-0"><stop id="SvgjsStop3985" stop-opacity="1" stop-color="#ffffff" offset="0" ></stop><stop id="SvgjsStop3986" stop-opacity="1" stop-color="#fcfdfd" offset="0.315" ></stop><stop id="SvgjsStop3987" stop-opacity="1" stop-color="#f4f7f8" offset="0.504" ></stop><stop id="SvgjsStop3988" stop-opacity="1" stop-color="#e5ecef" offset="0.66" ></stop><stop id="SvgjsStop3989" stop-opacity="1" stop-color="#d8e2e7" offset="0.76" ></stop></radialGradient><radialGradient id="SvgjsRadialGradient3991" cx="128.643" cy="83.986" r="15.116" gradientTransform="matrix(0.9945 0.1042 -0.1042 0.9945 7.1738 -12.4633)" gradientUnits="userSpaceOnUse" class="svga-on-canvas-eyesback-gradient-right-0"><stop id="SvgjsStop3992" stop-opacity="1" stop-color="#ffffff" offset="0" ></stop><stop id="SvgjsStop3993" stop-opacity="1" stop-color="#fcfdfd" offset="0.316" ></stop><stop id="SvgjsStop3994" stop-opacity="1" stop-color="#f4f7f8" offset="0.505" ></stop><stop id="SvgjsStop3995" stop-opacity="1" stop-color="#e5ecef" offset="0.661" ></stop><stop id="SvgjsStop3996" stop-opacity="1" stop-color="#d8e2e7" offset="0.76" ></stop></radialGradient><radialGradient id="SvgjsRadialGradient3998" cx="129.041" cy="83.945" r="15.117" gradientTransform="matrix(-0.9945 0.1042 0.1042 0.9945 192.8281 -12.4633)" gradientUnits="userSpaceOnUse" class="svga-on-canvas-eyesfront-gradient-left-0"><stop id="SvgjsStop3999" stop-opacity="1" stop-color="#ffffff" offset="0" ></stop><stop id="SvgjsStop4000" stop-opacity="1" stop-color="#fcfdfd" offset="0.316" ></stop><stop id="SvgjsStop4001" stop-opacity="1" stop-color="#f4f7f8" offset="0.505" ></stop><stop id="SvgjsStop4002" stop-opacity="1" stop-color="#e5ecef" offset="0.661" ></stop><stop id="SvgjsStop4003" stop-opacity="1" stop-color="#d8e2e7" offset="0.76" ></stop></radialGradient><radialGradient id="SvgjsRadialGradient4007" cx="121.986" cy="82.496" fx="133.239" fy="82.527" r="16.003" gradientTransform="matrix(0.9998 0.0208 0.0166 -0.7998 -45.3195 145.9395)" gradientUnits="userSpaceOnUse" class="svga-on-canvas-eyesfront-gradient-left-3"><stop id="SvgjsStop4008" stop-opacity="1" stop-color="#e1ac8f" offset="0" ></stop><stop id="SvgjsStop4009" stop-opacity="0.3" stop-color="#e1ac8f" offset="0.7" ></stop><stop id="SvgjsStop4010" stop-opacity="0" stop-color="#f0c7b1" offset="1" ></stop></radialGradient><radialGradient id="SvgjsRadialGradient4012" cx="68.931" cy="105.995" r="29.524" gradientTransform="matrix(1.0336 0 0 1.0336 -1.6796 1.3127)" gradientUnits="userSpaceOnUse" class="svga-on-canvas-eyesfront-gradient-left-4"><stop id="SvgjsStop4013" stop-opacity="0" stop-color="#000000" offset="0.95" ></stop><stop id="SvgjsStop4014" stop-opacity="0.2" stop-color="#000000" offset="1" ></stop></radialGradient><radialGradient id="SvgjsRadialGradient4018" cx="128.643" cy="83.986" r="15.116" gradientTransform="matrix(0.9945 0.1042 -0.1042 0.9945 7.1738 -12.4633)" gradientUnits="userSpaceOnUse" class="svga-on-canvas-eyesfront-gradient-right-0"><stop id="SvgjsStop4019" stop-opacity="1" stop-color="#ffffff" offset="0" ></stop><stop id="SvgjsStop4020" stop-opacity="1" stop-color="#fcfdfd" offset="0.316" ></stop><stop id="SvgjsStop4021" stop-opacity="1" stop-color="#f4f7f8" offset="0.505" ></stop><stop id="SvgjsStop4022" stop-opacity="1" stop-color="#e5ecef" offset="0.661" ></stop><stop id="SvgjsStop4023" stop-opacity="1" stop-color="#d8e2e7" offset="0.76" ></stop></radialGradient><radialGradient id="SvgjsRadialGradient4027" cx="121.587" cy="82.496" fx="132.839" fy="82.527" r="16.003" gradientTransform="matrix(-0.9998 0.0208 -0.0166 -0.7998 244.5208 145.9478)" gradientUnits="userSpaceOnUse" class="svga-on-canvas-eyesfront-gradient-right-3"><stop id="SvgjsStop4028" stop-opacity="1" stop-color="#e1ac8f" offset="0" ></stop><stop id="SvgjsStop4029" stop-opacity="0.3" stop-color="#e1ac8f" offset="0.7" ></stop><stop id="SvgjsStop4030" stop-opacity="0" stop-color="#f0c7b1" offset="1" ></stop></radialGradient><radialGradient id="SvgjsRadialGradient4032" cx="69.316" cy="105.995" r="29.524" gradientTransform="matrix(-1.0336 0 0 1.0336 201.6796 1.3127)" gradientUnits="userSpaceOnUse" class="svga-on-canvas-eyesfront-gradient-right-4"><stop id="SvgjsStop4033" stop-opacity="0" stop-color="#000000" offset="0.95" ></stop><stop id="SvgjsStop4034" stop-opacity="0.2" stop-color="#000000" offset="1" ></stop></radialGradient><radialGradient id="SvgjsRadialGradient4135" cx="-568.659" cy="-521.042" r="59.751" gradientTransform="matrix(0.096 -0.0248 0.0245 0.0961 141.2814 119.9893)" gradientUnits="userSpaceOnUse" class="svga-on-canvas-eyesiris-gradient-left-1"><stop id="SvgjsStop4136" stop-opacity="1" stop-color="#ffffff" offset="0" ></stop><stop id="SvgjsStop4137" stop-opacity="0" stop-color="#ffffff" offset="1" ></stop></radialGradient><radialGradient id="SvgjsRadialGradient4139" cx="-582.838" cy="-519.099" r="59.745" gradientTransform="matrix(0.0991 8.856319e-004 -0.0011 0.0991 131.1134 135.9855)" gradientUnits="userSpaceOnUse" class="svga-on-canvas-eyesiris-gradient-left-2"><stop id="SvgjsStop4140" stop-opacity="1" stop-color="#ffffff" offset="0" ></stop><stop id="SvgjsStop4141" stop-opacity="0" stop-color="#ffffff" offset="1" ></stop></radialGradient><linearGradient id="SvgjsLinearGradient4145" x1="122.67" y1="88.268" x2="123.606" y2="87.152" gradientTransform="matrix(1 0 0 1 -52 0)" gradientUnits="userSpaceOnUse" class="svga-on-canvas-eyesiris-gradient-left-5"><stop id="SvgjsStop4146" stop-opacity="1" stop-color="#ffffff" offset="0" ></stop><stop id="SvgjsStop4147" stop-opacity="0" stop-color="#ffffff" offset="1" ></stop></linearGradient><linearGradient id="SvgjsLinearGradient4149" x1="127.212" y1="82.296" x2="126.463" y2="83.189" gradientTransform="matrix(1 0 0 1 -52 0)" gradientUnits="userSpaceOnUse" class="svga-on-canvas-eyesiris-gradient-left-6"><stop id="SvgjsStop4150" stop-opacity="1" stop-color="#ffffff" offset="0" ></stop><stop id="SvgjsStop4151" stop-opacity="0" stop-color="#ffffff" offset="1" ></stop></linearGradient><linearGradient id="SvgjsLinearGradient4153" x1="129.636" y1="79.822" x2="127.91" y2="81.879" gradientTransform="matrix(1 0 0 1 -52 0)" gradientUnits="userSpaceOnUse" class="svga-on-canvas-eyesiris-gradient-left-7"><stop id="SvgjsStop4154" stop-opacity="1" stop-color="#ffffff" offset="0" ></stop><stop id="SvgjsStop4155" stop-opacity="0" stop-color="#ffffff" offset="1" ></stop></linearGradient><radialGradient id="SvgjsRadialGradient4158" cx="-568.654" cy="-521.042" r="59.752" gradientTransform="matrix(0.096 -0.0248 0.0245 0.0961 193.2804 119.9894)" gradientUnits="userSpaceOnUse" class="svga-on-canvas-eyesiris-gradient-right-1"><stop id="SvgjsStop4159" stop-opacity="1" stop-color="#ffffff" offset="0" ></stop><stop id="SvgjsStop4160" stop-opacity="0" stop-color="#ffffff" offset="1" ></stop></radialGradient><radialGradient id="SvgjsRadialGradient4162" cx="-582.833" cy="-519.102" r="59.747" gradientTransform="matrix(0.0991 8.856319e-004 -0.0011 0.0991 183.1126 135.9856)" gradientUnits="userSpaceOnUse" class="svga-on-canvas-eyesiris-gradient-right-2"><stop id="SvgjsStop4163" stop-opacity="1" stop-color="#ffffff" offset="0" ></stop><stop id="SvgjsStop4164" stop-opacity="0" stop-color="#ffffff" offset="1" ></stop></radialGradient><linearGradient id="SvgjsLinearGradient4168" x1="122.67" y1="88.268" x2="123.606" y2="87.152" gradientUnits="userSpaceOnUse" class="svga-on-canvas-eyesiris-gradient-right-5"><stop id="SvgjsStop4169" stop-opacity="1" stop-color="#ffffff" offset="0" ></stop><stop id="SvgjsStop4170" stop-opacity="0" stop-color="#ffffff" offset="1" ></stop></linearGradient><linearGradient id="SvgjsLinearGradient4172" x1="127.212" y1="82.296" x2="126.463" y2="83.189" gradientUnits="userSpaceOnUse" class="svga-on-canvas-eyesiris-gradient-right-6"><stop id="SvgjsStop4173" stop-opacity="1" stop-color="#ffffff" offset="0" ></stop><stop id="SvgjsStop4174" stop-opacity="0" stop-color="#ffffff" offset="1" ></stop></linearGradient><linearGradient id="SvgjsLinearGradient4176" x1="129.636" y1="79.822" x2="127.91" y2="81.879" gradientUnits="userSpaceOnUse" class="svga-on-canvas-eyesiris-gradient-right-7"><stop id="SvgjsStop4177" stop-opacity="1" stop-color="#ffffff" offset="0" ></stop><stop id="SvgjsStop4178" stop-opacity="0" stop-color="#ffffff" offset="1" ></stop></linearGradient></defs><g id="svga-group-wrapper"><g id="svga-group-backs-single"></g><g id="svga-group-humanwrap-move" transform="matrix(1,0,0,1,0,6)"><g id="svga-group-humanwrap" transform="matrix(1,0,0,1,0,0)"><g id="svga-group-hair-back-move" transform="matrix(1,0,0,1,0,0)"><g id="svga-group-hair-back" transform="matrix(1,0,0,1,0,0)"><path id="SvgjsPath3745" d="M100.5,100.5h-1v-1h1V100.5z" fill="#2a232b" stroke-width="none" opacity="1"></path></g></g><g id="svga-group-humanbody-single"><path id="SvgjsPath3288" d="M195.417 199.778c-2.196-4.746-8.195-11.779-14.86-13.722 -8.239-2.403-26.837-5.308-33.733-6.923 -5.528-1.296-16.662-11.294-20.564-14.65 -0.7-0.6-1.273-1.839-1.287-2.76 -0.139-10.864 4.195-39.724 4.195-39.724H100 70.833c0 0 4.334 28.859 4.193 39.724 -0.011 0.921-0.587 2.16-1.285 2.76 -3.902 3.356-15.036 13.354-20.564 14.65 -6.897 1.615-25.495 4.619-33.733 7.022 -6.667 1.942-12.664 8.876-14.86 13.622 -3.708 8.008-4.584 22.5-4.584 35h100 100C200 222.278 199.123 207.786 195.417 199.778z" fill="#f0c7b1" stroke-width="none" opacity="1" stroke="none"></path><path id="SvgjsPath3289" d="M159.156 184.058c24.342 3.542 34.586 8.708 37.794 50.721H200c0-12.5-0.877-26.992-4.583-35 -2.196-4.746-8.195-11.779-14.86-13.722 -8.239-2.403-26.837-5.308-33.733-6.923 -5.528-1.296-18.242-12.069-21.643-16.35 3.36 4.704 12.791 15.605 21.054 18.46C150.188 182.61 153.48 183.232 159.156 184.058zM53.766 181.244c8.263-2.854 17.693-13.756 21.054-18.46 -3.4 4.28-16.114 15.054-21.643 16.35 -6.896 1.615-25.494 4.619-33.733 7.022 -6.665 1.942-12.664 8.876-14.86 13.622 -3.706 8.008-4.583 22.5-4.583 35h3.05c3.188-41.744 13.475-47.183 37.794-50.721C46.52 183.232 49.813 182.61 53.766 181.244z" fill="#ffe4d6" stroke-width="none" opacity="1" stroke="none"></path><path id="SvgjsPath3290" d="M95.646 197.62c0 0-5.074-1.609-7.083-2.379 -10.449-4.009-44.395-6.607-44.395-6.607s35.754 1.419 43.644 2.779c-0.458-4.767-3.017-20.004-3.017-20.004s5.149 16.815 6.409 21.057C91.878 194.734 95.646 197.62 95.646 197.62zM106.445 196.278c-0.089 0.073-0.191 0.168-0.302 0.268C106.256 196.461 106.358 196.372 106.445 196.278zM95.646 197.62c0 0 2.893 2.992 4.347 3.03 1.91 0.051 4.828-2.899 6.151-4.104 -1.265 0.957-4.159 1.391-5.31 1.436C99.504 198.033 95.646 197.62 95.646 197.62zM116.664 190.101c-1.545 0.248-4.386 0.789-4.386 0.789l2.287-14.89c-0.646 3.071-4.474 16.211-8.12 20.278 1.91-1.616 6.158-2.391 8.324-2.704 10.236-1.484 10.232-1.483 41.062-4.94C155.831 188.634 126.76 188.479 116.664 190.101z" fill="#e1ac8f" stroke-width="none" opacity="1" stroke="none"></path><path id="SvgjsPath3291" d="M195.417 199.778c-2.196-4.746-8.195-11.779-14.86-13.722 -8.239-2.403-26.837-5.308-33.733-6.923 -5.528-1.296-16.662-11.294-20.564-14.65 -0.7-0.6-1.273-1.839-1.287-2.76 -0.139-10.864 4.195-39.724 4.195-39.724H100 70.833c0 0 4.334 28.859 4.193 39.724 -0.011 0.921-0.587 2.16-1.285 2.76 -3.902 3.356-15.036 13.354-20.564 14.65 -6.897 1.615-25.495 4.619-33.733 7.022 -6.667 1.942-12.664 8.876-14.86 13.622 -3.708 8.008-4.584 22.5-4.584 35h100 100C200 222.278 199.123 207.786 195.417 199.778z" fill="none" stroke="#c27b55" stroke-width="1.5" opacity="1"></path></g><g id="svga-group-chinshadow-single"><path id="SvgjsPath3452" d="M109.536 170.861c4.446-1.662 9.623-5.664 14.692-10.57 0.134-7.874 1.927-22.141 3.129-30.907 -15.727-1.816-38.988-1.81-54.712 0.013 1.201 8.766 2.992 23.017 3.125 30.887 5.071 4.909 10.251 8.915 14.699 10.578C94.942 172.534 105.063 172.534 109.536 170.861z" fill="url(#SvgjsLinearGradient3453)" opacity="1"></path></g><g id="svga-group-clothes-single"><path id="SvgjsPath3917" d="M100.149 235.501c-36.446 0-72.93-0.368-108.449-1.096 0.12-20.336 7.704-44.369 28.687-51.396 4.938-1.846 16.188-3.148 24.401-4.099l0.711-0.083 0.069-0.36c0.021-0.112 0.195-0.247 0.274-0.269 1.715-0.198 2.971-0.433 4.08-0.64l0.728-0.135c0.057-0.011 0.114-0.016 0.171-0.016 0.276 0 0.542 0.118 0.728 0.322 11.402 12.559 25.347 19.213 37.65 25.084 3.362 1.604 6.538 3.12 9.567 4.704 0.528 0.276 1.029 0.565 1.512 0.844 0.528 0.306 1.036 0.598 1.534 0.85l0.253 0.128 0.239-0.151c14.961-9.438 31.821-20.638 43.447-32.137 0.152-0.15 0.354-0.232 0.566-0.232 0.062 0 0.124 0.007 0.184 0.021 0.888 0.209 1.764 0.371 2.652 0.535 1.105 0.205 2.248 0.416 3.44 0.727 0.023 0.008 0.107 0.068 0.137 0.18l0.086 0.326 0.335 0.042c2.063 0.258 4.156 0.465 6.372 0.685 9.69 0.959 20.673 2.045 29.422 8.015 12.045 7.939 17.589 29.405 18.789 47.052 -0.912 0.012-2.652 0.046-5.166 0.096 -13.932 0.274-50.941 1.005-102.415 1.005C100.152 235.501 100.153 235.501 100.149 235.501z" fill="#386e77" stroke-width="none" opacity="1"></path><path id="SvgjsPath3918" d="M207.736 234.4c-0.408 0.005-0.99 0.016-1.725 0.028 -3.039-16.858-6.315-31.74-17.834-43.399 -10.539-8.782-28.915-5.961-42.535-10.969 -12.926 14.626-29.187 23.197-43.576 29.279 14.264-9.024 36.136-23.31 43.687-32.288 5.783 1.338 33.561 3.724 43.194 10.297C200.992 195.288 206.536 216.754 207.736 234.4zM51.55 177.73c-0.023-0.025-26.379 3.491-31.163 5.278 -20.983 7.027-28.567 31.061-28.687 51.396 0.274 0.006 0.55 0.01 0.824 0.016 1.106-15.271 5.857-28.244 16.094-39.269 10.321-11.26 29.183-10.47 43.568-13.491 15.293 15.293 35.334 23.124 49.879 27.679C79.899 198.128 64.633 192.14 51.55 177.73z" fill="#4d7e86" stroke-width="none" opacity="1"></path><path id="SvgjsPath3919" d="M189.229 186.936c-10.788-7.36-24.537-7.347-36.014-8.782 -0.075-0.285-0.297-0.483-0.494-0.535 -2.157-0.563-4.103-0.794-6.104-1.265 -0.438-0.103-0.896 0.027-1.216 0.343 -12.013 11.882-29.564 23.364-43.362 32.069 -0.95-0.48-1.936-1.113-3.04-1.69 -14.321-7.485-32.69-13.834-47.079-29.681 -0.342-0.377-0.856-0.553-1.357-0.463 -1.256 0.227-2.682 0.527-4.793 0.772 -0.207 0.024-0.62 0.292-0.691 0.669 -8.181 0.947-19.799 2.273-24.849 4.162 -20.823 6.974-29.03 30.729-29.03 52.36 120.98 2.487 212.138 0 217.07 0C207.301 219.607 202.475 195.666 189.229 186.936zM145.589 177.914c1.881 0.592 3.384 1.044 5.91 1.58 -2.104 1.75-1.066 0.361-7.82 6.671 -13.685 12.477-36.478 27.873-40.103 30.926 -0.008-0.003-4.283-2.621-5.545-3.133C106.688 205.818 128.612 197.149 145.589 177.914zM51.699 178.453c9.43 13.735 30.987 22.687 46.8 29.723 0.95 0.42 1.86 0.819 2.72 1.149 -0.704 0.48-4.058 3.29-4.647 3.874 -31.748-13.889-41.131-22.162-50.322-33.566C46.484 179.583 51.39 178.523 51.699 178.453zM-8.131 234.556c1.432-12.942 3.708-24.542 11.97-36.521 9.405-13.872 22.03-15.55 41.8-18.282 12.181 14.889 15.774 17.207 27.37 23.183 17.201 8.864 23.096 11.082 30.617 14.896 7.062-5.305 27.974-17.449 44.293-34.058 2.604-2.647 2.321-2.323 4.271-4.13 30.93 5.092 45.369-0.379 55.439 54.742C133.545 232.919 65.017 233.078-8.131 234.556z" fill="#0c4049" stroke-width="none" opacity="1"></path></g><g id="svga-group-head" transform="matrix(1,0,0,1,0,0)"><g id="svga-group-ears-left-move" transform="matrix(1,0,0,1,0,0)"><g id="svga-group-ears-left" transform="matrix(1,0,0,1,0,0)"><path id="SvgjsPath3549" d="M47.001 83.231c-1.376-2.453-5.638-8.48-9.98-7.003 -2.749 0.935-3.293 3.993-3.735 6.693 -0.588 3.591 0.471 10.694 1.389 13.26 0.881 2.467 3.533 7.23 5.264 9.045 2.13 2.225 4.775 9.324 5.194 10.061 0.66 1.162 1.536 2.911 4.122 2.692 2.853-0.244 4.584-1.85 5.856-2.121C58.253 115.192 50.582 89.616 47.001 83.231z" fill="#f0c7b1" stroke="#c27b55" stroke-width="1.5" opacity="1"></path><path id="SvgjsPath3550" d="M44.197 98.104c-0.132-0.581 0.007-1.56 0.142-2.504 0.124-0.861 0.24-1.675 0.169-2.251 -0.267-2.154-1.773-6.249-2.757-8.467 -1.132-2.554-2.963-5.77-5.262-6.599 -0.95-0.343-1.575 0.067-1.938 0.484 -0.266 0.305-0.325 0.665-0.238 0.707 0.086 0.042 0.285-0.254 0.572-0.535 0.235-0.229 0.579-0.426 1.051-0.385 -0.19 1.073-1.167 6.883-0.744 10.845 0.333 3.115 1.593 5.442 1.79 5.791 0.029 0.367 0.077 0.726 0.148 1.075 0.929 4.547 4.971 9.717 6.378 11.409 0.259 0.313 0.531 0.497 0.598 0.423 0.066-0.076-0.094-0.387-0.353-0.7 -1.388-1.679-5.391-6.831-6.289-11.218 -0.952-4.656 2.318-11.556 3.048-13.017 0.371 0.685 0.687 1.344 0.93 1.893 0.19 0.431 0.402 0.936 0.619 1.479 -0.429 0.762-3.434 6.32-2.338 10.767 0.406 1.641 2.235 3.755 3.447 4.333 0.667 0.32 0.919 0.797 1.209 1.349 0.336 0.64 0.718 1.365 1.828 1.892 0.225 0.108 0.429 0.151 0.61 0.151 0.313 0 0.551-0.135 0.725-0.293 0.018 0.28 0.017 0.64 0.009 0.97 -0.012 0.431 0.042 0.783 0.137 0.791 0.094 0.008 0.196-0.332 0.207-0.76 0.016-0.526 0.013-1.177-0.072-1.488 -0.248-0.917-1.008-1.953-1.813-3.048C45.221 100.116 44.403 99.003 44.197 98.104zM36.95 94.073c-2.177-7.139 0.656-13.3 1.144-14.28 0.85 0.822 1.6 1.919 2.21 2.995C39.86 83.646 37.041 89.271 36.95 94.073zM46.341 104.515c-1.004-0.475-1.339-1.115-1.666-1.733 -0.293-0.559-0.598-1.136-1.369-1.505 -0.168-0.081-0.352-0.203-0.542-0.343 -2.486-6.263 0.272-9.001 0.963-9.562 0.211 0.766 0.369 1.468 0.439 2.031 0.063 0.517-0.052 1.339-0.167 2.134 -0.142 0.985-0.286 2.004-0.137 2.664 0.226 0.982 1.069 2.131 1.884 3.242 0.723 0.986 1.466 2.003 1.721 2.832C47.359 104.439 47.017 104.836 46.341 104.515z" fill="#c27b55" stroke-width="none" opacity="1" stroke="none"></path></g></g><g id="svga-group-ears-right-move" transform="matrix(1,0,0,1,0,0)"><g id="svga-group-ears-right" transform="matrix(1,0,0,1,0,0)"><path id="SvgjsPath3551" d="M152.736 83.231c1.377-2.453 5.639-8.48 9.98-7.003 2.75 0.935 3.293 3.993 3.736 6.693 0.588 3.591-0.471 10.694-1.389 13.26 -0.881 2.467-3.533 7.23-5.266 9.045 -2.129 2.225-4.775 9.324-5.193 10.061 -0.658 1.162-1.535 2.911-4.121 2.692 -2.854-0.244-4.584-1.85-5.857-2.121C141.484 115.192 149.156 89.616 152.736 83.231z" fill="#f0c7b1" stroke="#c27b55" stroke-width="1.5" opacity="1"></path><path id="SvgjsPath3552" d="M153.727 101.196c-0.805 1.096-1.564 2.131-1.813 3.048 -0.086 0.311-0.088 0.962-0.072 1.488 0.012 0.428 0.113 0.768 0.207 0.76s0.148-0.36 0.137-0.791c-0.008-0.331-0.008-0.69 0.01-0.97 0.174 0.158 0.412 0.293 0.725 0.293 0.182 0 0.385-0.043 0.609-0.151 1.109-0.526 1.492-1.252 1.828-1.892 0.289-0.552 0.543-1.028 1.209-1.349 1.213-0.578 3.041-2.692 3.447-4.333 1.096-4.447-1.908-10.005-2.338-10.767 0.217-0.544 0.43-1.049 0.619-1.479 0.244-0.549 0.559-1.208 0.93-1.893 0.73 1.46 4 8.361 3.049 13.017 -0.896 4.387-4.9 9.539-6.289 11.218 -0.258 0.313-0.418 0.624-0.352 0.7 0.066 0.074 0.338-0.109 0.598-0.423 1.406-1.692 5.449-6.862 6.379-11.409 0.07-0.35 0.117-0.708 0.146-1.075 0.197-0.349 1.459-2.676 1.791-5.791 0.422-3.961-0.555-9.772-0.744-10.845 0.473-0.042 0.814 0.156 1.051 0.385 0.287 0.281 0.486 0.577 0.572 0.535 0.086-0.042 0.027-0.402-0.238-0.707 -0.363-0.417-0.988-0.827-1.938-0.484 -2.299 0.83-4.131 4.045-5.262 6.599 -0.984 2.218-2.49 6.313-2.758 8.467 -0.072 0.576 0.045 1.39 0.17 2.251 0.135 0.945 0.273 1.924 0.141 2.504C155.336 99.003 154.518 100.116 153.727 101.196zM159.434 82.787c0.611-1.075 1.361-2.173 2.211-2.995 0.488 0.98 3.32 7.141 1.145 14.28C162.697 89.271 159.879 83.646 159.434 82.787zM152.27 104.275c0.254-0.829 0.998-1.846 1.721-2.832 0.816-1.111 1.658-2.26 1.885-3.242 0.148-0.66 0.004-1.679-0.137-2.664 -0.115-0.795-0.23-1.617-0.166-2.134 0.068-0.563 0.227-1.266 0.438-2.031 0.691 0.561 3.449 3.299 0.965 9.562 -0.191 0.14-0.375 0.263-0.543 0.343 -0.771 0.369-1.074 0.946-1.369 1.505 -0.326 0.618-0.662 1.258-1.666 1.733C152.721 104.836 152.379 104.439 152.27 104.275z" fill="#c27b55" stroke-width="none" opacity="1" stroke="none"></path></g></g><g id="svga-group-faceshape-wrap" transform="matrix(1,0,0,1,0,0)"><g id="svga-group-faceshape-single"><path id="SvgjsPath3449" d="M144.004 126.306c-6.87 10.846-23.072 30.329-34.468 34.563 -4.474 1.663-14.594 1.663-19.067 0 -11.396-4.235-27.596-23.719-34.467-34.563 -6.753-10.657-14.852-48.287-14.863-48.341 -1.3-4.961-1.996-10.168-2.004-15.538C39.082 28.614 66.289 1.169 99.907 1.116c33.621-0.053 60.913 27.306 60.963 61.119 0.009 5.37-0.669 10.579-1.952 15.544C158.901 77.832 150.78 115.606 144.004 126.306z" fill="#f0c7b1" stroke-width="none" opacity="1" stroke="none"></path><path id="SvgjsPath3450" d="M110.152 1.978c26.994 6.303 47.097 30.644 47.052 59.708 -0.009 5.369-0.704 10.577-2.004 15.537 -0.012 0.054-7.377 37.684-14.13 48.341 -6.872 10.844-22.339 29.588-33.734 33.823 -1.476 0.549-5.027 1.103-7.334 1.103 -2.307 0-5.857-0.554-7.333-1.103 -11.396-4.235-26.863-22.979-33.734-33.823 -6.753-10.657-14.119-48.287-14.13-48.341 -1.3-4.96-1.996-10.168-2.004-15.537C42.756 32.622 62.857 8.281 89.853 1.978 61.03 6.845 39.087 32.061 39.134 62.427c0.008 5.369 0.704 10.576 2.004 15.538 0.012 0.054 8.11 37.684 14.863 48.341 6.871 10.845 23.072 30.328 34.467 34.563 2.239 0.833 5.889 1.247 9.537 1.244 3.646 0.001 7.292-0.411 9.53-1.244 11.396-4.235 27.596-23.719 34.468-34.563 6.753-10.657 14.852-48.287 14.862-48.341 1.3-4.961 1.996-10.168 2.004-15.538C160.918 32.061 138.975 6.845 110.152 1.978z" fill="#e8b9a0" stroke-width="none" opacity="1" stroke="none"></path><path id="SvgjsPath3451" d="M144.004 126.306c-6.87 10.846-23.072 30.329-34.468 34.563 -4.474 1.663-14.594 1.663-19.067 0 -11.396-4.235-27.596-23.719-34.467-34.563 -6.753-10.657-14.852-48.287-14.863-48.341 -1.3-4.961-1.996-10.168-2.004-15.538C39.082 28.614 66.289 1.169 99.907 1.116c33.621-0.053 60.913 27.306 60.963 61.119 0.009 5.37-0.669 10.579-1.952 15.544C158.901 77.832 150.78 115.606 144.004 126.306z" fill="none" stroke="#c27b55" stroke-width="1.5" opacity="1"></path></g></g><g id="svga-group-mouth-single-move" transform="matrix(1,0,0,1,0,0)"><g id="svga-group-mouth-single" transform="matrix(1,0,0,1,0,0)"><path id="SvgjsPath3542" d="M100.2 142.947c-2.832 0.144-3.644-2.753-3.644-2.753s3.931 0.565 6.991-0.353C103.548 139.842 102.692 142.822 100.2 142.947z" fill="url(#SvgjsLinearGradient3543)" opacity="1"></path><path id="SvgjsPath3546" d="M100.488 140.76c-1.984 0.1-3.765-0.077-3.877-0.089 -0.138-0.014-0.238-0.136-0.224-0.272 0.015-0.138 0.143-0.233 0.274-0.224 0.041 0.003 4.096 0.405 6.738-0.337 0.131-0.032 0.271 0.041 0.309 0.174s-0.04 0.27-0.173 0.308C102.601 140.582 101.517 140.708 100.488 140.76z" fill="#c27b55" stroke-width="none" opacity="1" stroke="none"></path><path id="SvgjsPath3547" d="M82.5 130.299c0 0 12.532 1.486 16.718 1.499 4.553 0.012 19.282-1.499 19.282-1.499 -4.258 3.534-8.943 6.932-19.555 6.999C89.453 137.359 87.021 133.912 82.5 130.299z" fill="#ffffff" stroke-width="none" opacity="1"></path><path id="SvgjsPath3548" d="M82.5 130.299c0 0 12.532 1.486 16.718 1.499 4.553 0.012 19.282-1.499 19.282-1.499 -4.258 3.534-8.943 6.932-19.555 6.999C89.453 137.359 87.021 133.912 82.5 130.299z" fill="none" stroke="#c27b55" stroke-width="0.75" opacity="1"></path></g></g><g id="svga-group-eyes-left-move" transform="matrix(1,0,0,1,0,0)"><g id="svga-group-eyes-left" transform="matrix(1,0,0,1,0,0)"><g id="svga-group-eyesback-left"><path id="SvgjsPath3983" d="M61.752 82.523c-0.506-2.285 5.191-3.973 12.711-3.051 7.518 0.923 12.738 5.524 12.052 7.844 -0.38 1.286-10.639 3.245-14.253 2.847C68.598 89.758 62.974 88.04 61.752 82.523z" fill="url(#SvgjsRadialGradient3984)" opacity="1"></path></g><g id="svga-group-eyesiriswrapper-left" transform="matrix(1,0,0,1,0.25,0.25)"><g id="svga-group-eyesiriscontrol-left" transform="matrix(1,0,0,1,0,0)"><g id="svga-group-eyesiris-left" transform="matrix(1,0,0,1,0,0)"><path id="SvgjsPath4179" d="M79.788 85.588c-0.869 3.192-4.162 5.073-7.361 4.196 -3.197-0.876-5.084-4.178-4.214-7.371 0.869-3.195 4.168-5.076 7.365-4.198C78.772 79.09 80.659 82.392 79.788 85.588z" fill="#3258e5" stroke="#0027b7" stroke-width="0.5" opacity="1"></path><path id="SvgjsPath4180" d="M79.643 84.371c-0.441 3.545-3.072 5.392-5.952 5.199 -2.658-0.179-5.034-2.14-5.254-5.525 0.919-0.264 2.14 0.165 3.211 0.001 -0.003 0.039-0.017 0.074-0.018 0.113 -0.084 1.3 0.958 2.433 2.329 2.525 1.374 0.092 2.556-0.892 2.641-2.191 0.009-0.169-0.001-0.336-0.027-0.496C77.527 84.141 78.693 83.999 79.643 84.371z" fill="#4e71f4" stroke-width="none" opacity="1" stroke="none"></path><path id="SvgjsPath4181" d="M74.867 81.998c-1.319-0.377-2.667 0.376-3.007 1.691 -0.341 1.308 0.453 2.678 1.771 3.056 1.322 0.379 2.669-0.375 3.011-1.684C76.986 83.745 76.188 82.376 74.867 81.998z" fill="#000000" stroke-width="none" opacity="0.9"></path><path id="SvgjsPath4182" d="M74.867 81.998c-1.319-0.377-2.667 0.376-3.007 1.691 -0.341 1.308 0.453 2.678 1.771 3.056 1.322 0.379 2.669-0.375 3.011-1.684C76.986 83.745 76.188 82.376 74.867 81.998z" fill="none" stroke="#0027b7" stroke-width="0.75" opacity="1"></path><path id="SvgjsPath4183" d="M71.16 87.657c-0.125 0.437-0.806 0.251-0.681-0.188 0.121-0.423 0.446-0.683 0.653-1.055 0.221-0.398 0.831-0.042 0.609 0.356C71.571 87.078 71.257 87.314 71.16 87.657L71.16 87.657zM72.246 86.96c-0.188 0.219-0.434 1.03-0.54 1.295 -0.17 0.422 0.513 0.604 0.681 0.188 0.058-0.145 0.256-0.863 0.359-0.983C73.04 87.116 72.543 86.614 72.246 86.96L72.246 86.96zM73.716 89.048c0.369-0.425 0.332-0.912 0.324-1.441 -0.007-0.455-0.713-0.455-0.706 0 0.004 0.293 0.092 0.701-0.117 0.942C72.92 88.891 73.417 89.392 73.716 89.048L73.716 89.048zM74.437 87.519c0.005 0.438 0.06 0.865 0.189 1.285 0.134 0.434 0.815 0.249 0.681-0.188 -0.112-0.362-0.159-0.719-0.164-1.097C75.138 87.064 74.432 87.063 74.437 87.519L74.437 87.519z" fill="#ffffff" stroke-width="none" opacity="0.5"></path><path id="SvgjsPath4184" d="M78.197 82.971c-0.695 0.417-1.74 0.042-2.333-0.839 -0.592-0.881-0.503-1.934 0.193-2.349 0.694-0.419 1.742-0.043 2.33 0.838C78.979 81.502 78.893 82.554 78.197 82.971z" fill="#ffffff" stroke-width="none" opacity="0.8"></path></g></g></g><g id="svga-group-eyesfront-left"><path id="SvgjsPath4005" d="M53.294 83c0.809 10.899 11.637 23.583 20.506 22.236 10.498 0.106 20.864-7.868 20.864-22.305s-5.087-26.528-21.127-26.528C62.037 56.402 53.294 68.563 53.294 83zM61.752 82.523c-0.506-2.285 5.191-3.973 12.711-3.051 7.518 0.923 12.738 5.524 12.052 7.844 -0.38 1.286-10.639 3.245-14.253 2.847C68.598 89.758 62.974 88.04 61.752 82.523z" fill="#f0c7b1" stroke-width="none" opacity="1" stroke="none"></path><path id="SvgjsPath4006" d="M72.262 90.163c3.614 0.398 13.873-1.561 14.253-2.847 0.687-2.32-4.534-6.921-12.052-7.844C68.003 78.68 62.9 79.816 61.907 81.6c0.898-6.4 7.7-11.397 15.987-11.434 8.911-0.037 16.148 5.676 16.172 12.765 0.021 7.088-7.185 12.862-16.095 12.902 -8.913 0.037-16.149-5.676-16.173-12.764 0-0.105 0.016-0.208 0.019-0.313C63.147 88.083 68.651 89.764 72.262 90.163z" fill="url(#SvgjsRadialGradient4007)" opacity="1"></path><path id="SvgjsPath4011" d="M61.752 82.523c-0.506-2.285 5.191-3.973 12.711-3.051 7.518 0.923 12.738 5.524 12.052 7.844 -0.38 1.286-10.639 3.245-14.253 2.847C68.598 89.758 62.974 88.04 61.752 82.523z" fill="url(#SvgjsRadialGradient4012)" opacity="1"></path><path id="SvgjsPath4015" d="M62.148 77.417c4.208-1.978 9.35-2.16 13.838-1.005 2.404 0.561 4.965 1.285 7.063 2.638 1.945 1.135 3.525 2.5 5.002 4.19 -1.342-1.701-2.773-3.118-4.623-4.27 -2.276-1.416-4.769-2.294-7.364-2.916C71.478 74.928 66.342 75.184 62.148 77.417z" fill="#c27b55" stroke-width="none" opacity="1" stroke="none"></path><path id="SvgjsPath4016" d="M62.769 78.02c0.88-0.352 4.065-1 5.456-1.066 1.687-0.082 5.073 0.125 6.735 0.424 3.374 0.608 9.251 2.483 11.678 7.184 0.746 1.445 0.074 2.456-0.123 2.675 0.3-2.426-4.838-6.746-12.052-7.604 -7.52-0.894-13.217 0.743-12.711 2.958 1.222 5.348 6.846 7.013 10.51 7.405 4.099 0.439 11.684-1.539 12.686-1.753 -1.999 1.009-7.524 2.095-9.767 2.303 -0.744 0.07-2.24 0.104-2.986 0.085 -5.949-0.158-10.169-3.175-11.729-7.26C59.464 80.745 60.56 78.902 62.769 78.02z" fill="#000000" stroke-width="none" opacity="1" stroke="none"></path></g></g></g><g id="svga-group-eyes-right-move" transform="matrix(1,0,0,1,0,0)"><g id="svga-group-eyes-right" transform="matrix(1,0,0,1,0,0)"><g id="svga-group-eyesback-right"><path id="SvgjsPath3990" d="M137.849 82.523c0.506-2.285-5.191-3.973-12.711-3.051 -7.518 0.923-12.738 5.524-12.052 7.844 0.38 1.286 10.639 3.245 14.253 2.847C131.003 89.758 136.627 88.04 137.849 82.523z" fill="url(#SvgjsRadialGradient3991)" opacity="1"></path></g><g id="svga-group-eyesiriswrapper-right" transform="matrix(1,0,0,1,-0.25,0.25)"><g id="svga-group-eyesiriscontrol-right" transform="matrix(1,0,0,1,0,0)"><g id="svga-group-eyesiris-right" transform="matrix(1,0,0,1,0,0)"><path id="SvgjsPath4185" d="M131.788 85.588c-0.869 3.192-4.162 5.073-7.362 4.196 -3.196-0.876-5.084-4.178-4.214-7.371 0.869-3.195 4.169-5.076 7.365-4.198C130.772 79.09 132.658 82.392 131.788 85.588z" fill="#3258e5" stroke="#0027b7" stroke-width="0.5" opacity="1"></path><path id="SvgjsPath4186" d="M131.643 84.371c-0.44 3.545-3.072 5.392-5.951 5.199 -2.657-0.179-5.034-2.14-5.255-5.525 0.919-0.264 2.141 0.165 3.212 0.001 -0.004 0.039-0.017 0.074-0.019 0.113 -0.085 1.3 0.958 2.433 2.329 2.525 1.374 0.092 2.555-0.892 2.64-2.191 0.009-0.169-0.001-0.336-0.026-0.496C129.527 84.141 130.693 83.999 131.643 84.371z" fill="#4e71f4" stroke-width="none" opacity="1" stroke="none"></path><path id="SvgjsPath4187" d="M126.867 81.998c-1.319-0.377-2.666 0.376-3.007 1.691 -0.341 1.308 0.453 2.678 1.771 3.056 1.322 0.379 2.669-0.375 3.011-1.684C128.986 83.745 128.188 82.376 126.867 81.998z" fill="#000000" stroke-width="none" opacity="0.9"></path><path id="SvgjsPath4188" d="M126.867 81.998c-1.319-0.377-2.666 0.376-3.007 1.691 -0.341 1.308 0.453 2.678 1.771 3.056 1.322 0.379 2.669-0.375 3.011-1.684C128.986 83.745 128.188 82.376 126.867 81.998z" fill="none" stroke="#0027b7" stroke-width="0.75" opacity="1"></path><path id="SvgjsPath4189" d="M123.16 87.657c-0.125 0.437-0.806 0.251-0.682-0.188 0.121-0.423 0.447-0.683 0.654-1.055 0.22-0.398 0.83-0.042 0.609 0.356C123.571 87.078 123.257 87.314 123.16 87.657L123.16 87.657zM124.246 86.96c-0.188 0.219-0.434 1.03-0.54 1.295 -0.171 0.422 0.513 0.604 0.681 0.188 0.059-0.145 0.256-0.863 0.358-0.983C125.04 87.116 124.543 86.614 124.246 86.96L124.246 86.96zM125.716 89.048c0.369-0.425 0.332-0.912 0.324-1.441 -0.007-0.455-0.713-0.455-0.706 0 0.004 0.293 0.092 0.701-0.117 0.942C124.92 88.891 125.418 89.392 125.716 89.048L125.716 89.048zM126.438 87.519c0.005 0.438 0.059 0.865 0.188 1.285 0.135 0.434 0.815 0.249 0.681-0.188 -0.112-0.362-0.159-0.719-0.164-1.097C127.138 87.064 126.432 87.063 126.438 87.519L126.438 87.519z" fill="#ffffff" stroke-width="none" opacity="0.5"></path><path id="SvgjsPath4190" d="M130.197 82.971c-0.695 0.417-1.74 0.042-2.333-0.839 -0.592-0.881-0.504-1.934 0.192-2.349 0.695-0.419 1.742-0.043 2.33 0.838C130.979 81.502 130.893 82.554 130.197 82.971z" fill="#ffffff" stroke-width="none" opacity="0.8"></path></g></g></g><g id="svga-group-eyesfront-right"><path id="SvgjsPath4025" d="M126.063 56.402c-16.04 0-21.127 12.091-21.127 26.528s10.366 22.412 20.864 22.305c8.869 1.347 19.697-11.337 20.506-22.236C146.307 68.563 137.563 56.402 126.063 56.402zM127.339 90.163c-3.614 0.398-13.873-1.561-14.253-2.847 -0.687-2.32 4.534-6.921 12.052-7.844 7.52-0.922 13.217 0.767 12.711 3.051C136.627 88.04 131.003 89.758 127.339 90.163z" fill="#f0c7b1" stroke-width="none" opacity="1" stroke="none"></path><path id="SvgjsPath4026" d="M127.339 90.163c-3.614 0.398-13.873-1.561-14.253-2.847 -0.687-2.32 4.534-6.921 12.052-7.844 6.46-0.792 11.563 0.345 12.556 2.128 -0.898-6.4-7.7-11.397-15.987-11.434 -8.911-0.037-16.148 5.676-16.172 12.765 -0.021 7.088 7.185 12.862 16.095 12.902 8.913 0.037 16.149-5.676 16.173-12.764 0-0.105-0.016-0.208-0.019-0.313C136.453 88.083 130.949 89.764 127.339 90.163z" fill="url(#SvgjsRadialGradient4027)" opacity="1"></path><path id="SvgjsPath4031" d="M137.849 82.523c0.506-2.285-5.191-3.973-12.711-3.051 -7.518 0.923-12.738 5.524-12.052 7.844 0.38 1.286 10.639 3.245 14.253 2.847C131.003 89.758 136.627 88.04 137.849 82.523z" fill="url(#SvgjsRadialGradient4032)" opacity="1"></path><path id="SvgjsPath4035" d="M137.452 77.417c-4.208-1.978-9.35-2.16-13.838-1.005 -2.404 0.561-4.965 1.285-7.063 2.638 -1.945 1.135-3.525 2.5-5.002 4.19 1.342-1.701 2.773-3.118 4.623-4.27 2.276-1.416 4.769-2.294 7.364-2.916C128.123 74.928 133.259 75.184 137.452 77.417z" fill="#c27b55" stroke-width="none" opacity="1" stroke="none"></path><path id="SvgjsPath4036" d="M136.832 78.02c-0.88-0.352-4.065-1-5.456-1.066 -1.687-0.082-5.073 0.125-6.735 0.424 -3.374 0.608-9.251 2.483-11.678 7.184 -0.746 1.445-0.074 2.456 0.123 2.675 -0.3-2.426 4.838-6.746 12.052-7.604 7.52-0.894 13.217 0.743 12.711 2.958 -1.222 5.348-6.846 7.013-10.51 7.405 -4.099 0.439-11.684-1.539-12.686-1.753 1.999 1.009 7.524 2.095 9.767 2.303 0.744 0.07 2.24 0.104 2.986 0.085 5.949-0.158 10.169-3.175 11.729-7.26C140.137 80.745 139.041 78.902 136.832 78.02z" fill="#000000" stroke-width="none" opacity="1" stroke="none"></path></g></g></g><g id="svga-group-facehighlight-single"><path id="SvgjsPath3280" d="M141 113.974c0.035 22.622-18.292 40.994-40.938 41.025 -22.642 0.037-41.028-18.273-41.063-40.9 -0.035-22.62 18.292-41.064 40.937-41.1C122.579 72.964 140.967 91.349 141 113.974z" fill="url(#SvgjsRadialGradient3281)" opacity="1"></path><path id="SvgjsPath3284" d="M137.5 53.999c0 20.711-16.789 37.5-37.499 37.5 -20.711 0-37.501-16.789-37.501-37.5s16.79-37.5 37.501-37.5C120.711 16.499 137.5 33.288 137.5 53.999z" fill="url(#SvgjsRadialGradient3285)" opacity="1"></path></g><g id="svga-group-eyebrows-left-move" transform="matrix(1,0,0,1,0,0)"><g id="svga-group-eyebrows-left-rotate" transform="matrix(1,0,0,1,0,0)"><g id="svga-group-eyebrows-left" transform="matrix(1,0,0,1,0,0)"><path id="SvgjsPath3414" d="M54 74.189c9.954-9.974 16.761-5.915 30.589-3.264 0.845 0.162 6.32 1.539 5.31 3.469 -0.483 0.924-2.036 0.814-2.903 0.798C73.308 74.936 66.652 65.197 54 74.189z" fill="#2a232b" stroke-width="none" opacity="1" stroke="none"></path></g></g></g><g id="svga-group-eyebrows-right-move" transform="matrix(1,0,0,1,0,0)"><g id="svga-group-eyebrows-right-rotate" transform="matrix(1,0,0,1,0,0)"><g id="svga-group-eyebrows-right" transform="matrix(1,0,0,1,0,0)"><path id="SvgjsPath3415" d="M146 74.189c-9.953-9.974-16.761-5.915-30.589-3.264 -0.846 0.162-6.32 1.539-5.311 3.469 0.483 0.924 2.036 0.814 2.903 0.798C126.691 74.936 133.348 65.197 146 74.189z" fill="#2a232b" stroke-width="none" opacity="1" stroke="none"></path></g></g></g><g id="svga-group-nose-single-move" transform="matrix(1,0,0,1,0,0)"><g id="svga-group-nose-single" transform="matrix(1,0,0,1,0,0)"><path id="SvgjsPath3423" d="M91.115 115.499c-0.878 2.064 5.934 4.292 8.519 4.429 2.8 0.147 10.646-2.9 9.316-4.992 -1.399-2.195-6.643-0.286-8.906-0.286C97.792 114.649 92.291 112.745 91.115 115.499z" fill="#e1ac8f" stroke-width="none" opacity="1" stroke="none"></path><path id="SvgjsPath3424" d="M101.857 117.058c-0.23-0.759 1.876-1.584 2.657-1.694 1.101-0.16 3.36 0.802 3.158 1.592 -0.184 0.698-2.148-0.533-2.86-0.429C104.078 116.634 102.075 117.769 101.857 117.058zM94.974 116.811c0.968 0 2.404 0.623 2.668 0.074 0.315-0.655-2.139-1.461-2.86-1.372 -0.596 0.07-2.733 1.315-2.439 1.839C92.617 117.833 93.698 116.811 94.974 116.811z" fill="#c27b55" stroke-width="none" opacity="1" stroke="none"></path><path id="SvgjsPath3425" d="M100.089 111.999c0.607 0 1.742-0.74 1.792-2.23 0.201-6.008-0.956-23.833-1.792-23.77 -0.78 0.059-2.267 17.637-1.948 23.77C98.22 111.271 99.404 111.999 100.089 111.999z" fill="#fff5ef" stroke-width="none" opacity="0.2" stroke="none"></path></g></g><g id="svga-group-beardwrap" transform="matrix(1,0,0,1,0,0)"><g id="svga-group-beard-single-move" transform="matrix(1,0,0,1,0,0)"><g id="svga-group-beard-single" transform="matrix(1,0,0,1,0,0)"><path id="SvgjsPath3298" d="M100,18.13L100,18.13L100,18.13L100,18.13z" fill="#2a232b" stroke-width="none" opacity="1"></path></g></g></g><g id="svga-group-mustache-single-move" transform="matrix(1,0,0,1,0,0)"><g id="svga-group-mustache-single" transform="matrix(1,0,0,1,0,0)"><path id="SvgjsPath3296" d="M100,18.13L100,18.13L100,18.13L100,18.13z" fill="#2a232b" stroke-width="none" opacity="1"></path></g></g><g id="svga-group-hair-front" transform="matrix(1,0,0,1,0,0)"><path id="SvgjsPath3747" d="M44.974,94.895c-2.423-8.815-3.728-16.533-5.54-24.585l0.083-0.019c-0.686-1.689-3.162-15.06-3.185-15.204c-2.525-17.77,4.993-18.784,4.84-26.198c3.165,1.585,6.242,0.799,9.019-1.365c-2.918-1.499-1.997-1.736-5.872-4.095c2.731-0.472,4.326,0.165,6.646,0.454c-1.983-1.983-5.875-6.028-8.404-5.492l-0.165-0.354c3.661-2.857,8.548,3.091,12.954,1.48C55.483,3.144,79.417-0.256,85.242-2.689c7.755-2.951,15.856-9.441,21.553-10.021c-3.225,3.241-5.2,8.449-5.347,12.358c4.698-4.486,5.03-4.355,12.151-12.264c0,6.364-1.763,7.163-4.051,10.898c6.211-4.07,13.955-15.489,25.881-17.235l0.131,0.37c-4.298,2.532-7.624,6.804-9.898,12.708c2.257-2.726,5.451-5.683,8.986-6.218l0.133,0.369c-2.215,1.325-6.554,5.742-7.547,13.138c4.381-4.893,11.35-8.948,16.134-10.48l0.187,0.346c-4.392,3.573-6.153,9.828-7.146,15.146c3.08-4.58,4.872-5.624,8.747-7.548c-1.247,1.865-1.166,1.539-2.158,3.566c2.396,6.123,10.313,6.361,11.666,17.059c1.63-1.424,2.277-1.781,4.151-3.092l0.282,0.272c-1.408,2.187-2.569,6.06-3.342,8.652c2.78-2.123,7.073-3.687,10.096-4.778l0.211,0.328c-2.551,2.593-5.648,6.546-6.162,10.834c1-0.592,1.048-0.524,2.35-1.466c0,3.081,0.105,2.688,0.127,4.105c1.257-1.125,1.45-1.282,2.276-2.181c-0.183,32.362-1.845,25.912-6.317,48.466c-0.784,3.963-2.171,10.883-3.061,14.207l-6.049,1.039c1.87-22.394-0.093-17.512,1.267-31.604c2.012-20.779-14.804-37.812-37.025-32.237c-4.496,1.128-22.44,1.127-26.934,0c-24.547-6.163-33.391,8.18-36.026,33.278c-1.291,12.318-1.607,8.161,0.267,30.563L44.974,94.895z" fill="#2a232b" stroke-width="none" opacity="1"></path><path id="SvgjsPath3748" d="M162.376,34.359c-0.021-1.418-0.127-1.024-0.127-4.105c-1.302,0.941-1.35,0.874-2.35,1.466c0.514-4.288,3.611-8.241,6.162-10.834l-0.211-0.328c-3.022,1.092-7.315,2.655-10.096,4.778c0.772-2.592,1.934-6.465,3.342-8.652l-0.282-0.272c-1.874,1.311-2.521,1.668-4.151,3.092c-1.353-10.697-9.27-10.936-11.666-17.059c0.992-2.027,0.911-1.701,2.158-3.566c-3.875,1.924-5.667,2.968-8.747,7.548c0.993-5.318,2.755-11.573,7.146-15.146l-0.187-0.346c-4.784,1.532-11.753,5.587-16.134,10.48c0.993-7.396,5.332-11.813,7.547-13.138l-0.133-0.369c-3.535,0.535-6.729,3.493-8.986,6.218c2.274-5.904,5.601-10.176,9.898-12.708l-0.131-0.37c-11.926,1.746-19.67,13.165-25.881,17.235c2.288-3.735,4.051-4.535,4.051-10.898c-7.121,7.909-7.453,7.778-12.151,12.264c0.146-3.909,2.122-9.118,5.347-12.358c-5.696,0.58-13.797,7.069-21.553,10.021C79.417-0.256,55.483,3.144,55.35,19.518c-4.406,1.611-9.293-4.337-12.954-1.48l0.165,0.354c2.529-0.537,6.421,3.508,8.404,5.492c-2.319-0.289-3.915-0.926-6.646-0.454c3.875,2.359,2.954,2.596,5.872,4.095c-2.777,2.164-5.854,2.95-9.019,1.365c0.153,7.415-7.366,8.429-4.84,26.198c0.023,0.144,2.499,13.515,3.185,15.204l-0.083,0.019c1.812,8.052,3.117,15.771,5.54,24.585L45,94.899c-0.661-16.442-11.02-39.816-4.941-54.788C40.852,38.156,43.92,33,43.92,33s9.627-1.264,10.08-5c0,0-2-1-3-2c2,1,2-2,4-1c0-2-3-1-3-3c2,0,4,0,6,2c-1-5,0-10,4-13C72,3,85,4,95-4c-1,5-2,10-2,15c6-3,8-9,13-13c1,4-1,9-1,13c3-7,7-14,16-16c-4,4-4,10-4,15c0-4,4-6,5-9c0,4,0,8,0,12c2-6,6-9,11-11c-4,4-3,8-4,13c3-3,7-4,10-7c3,6,1,11,1,17c1-5,6-8,9-12c1,5,1,10,0,15c1-3,3-5,4-8c0,4.86-0.668,9.062-1.98,13.142c1.255-1.452,3.304-2.111,3.98-4.142c0,4.325,0,7.904,0,12.027c0.58-1.192,2.29-1.608,3-3.027c-0.854,3.413-0.254,6.103-0.059,9.302c0.371-1.96,2.258-3.162,2.94-4.967c0.04-0.778,0.081-1.557,0.118-2.335c0.229,0.912,0.135,1.664-0.118,2.335c-0.912,17.771-2.593,35.516-6.256,52.628l0.648-0.111c0.89-3.324,2.276-10.244,3.061-14.207c4.473-22.554,6.135-16.104,6.317-48.466C163.826,33.078,163.633,33.235,162.376,34.359z" fill="#3a353a" stroke-width="none" opacity="1"></path><path id="SvgjsPath3749" d="M167.779,19.695c-4.949,0.834-8.406,2.438-11.05,4.25c0.385-1.005,2.193-6.67,4.14-9.05c-2.99,1.333-4.72,2.763-5.72,3.51c0-1.032-0.398-2.224-0.59-2.84c-0.189-0.515-0.348-1.117-1.271-2.62c-5.171-7.296-5.494-4.244-9.729-9.83c0.772-1.811,1.889-3.572,3.29-5.03c-3.908,0.555-5.965,2.075-8.44,4.51c-0.04,0.04-0.07,0.08-0.1,0.12c1.551-6.126,4.59-11.437,10.56-13.43c-7.384-0.268-16.525,5.192-21.12,10.64c1.984-6.381,4.646-9.421,8.601-12.25c-2.846-0.421-5.635,0.742-7.841,2.58c2.541-4.397,6.317-7.899,9.351-9.53c-0.431-0.01-0.94-0.04-1.5,0c-0.777-0.199-5.479,0.566-7.16,1.29c-8.329,3.252-14.389,10.822-16.99,13.28c1.916-3.098,2.01-5.298,1.66-8.52c-0.655,0.563-11.615,11.055-11.75,11.19c0.777-4.309,2.245-6.937,5.02-10.79c-4.947-0.926-17.332,7.217-25.01,9.39c-8.044,2.179-28.004,6.723-27.09,22.7c-4.295,0.819-10.584-6.077-13.88-0.29c2.646-1.57,6.151,2.21,8.59,4.37c-1-0.163-4.343-0.948-5.96,0.13c1.894,0.735,3.55,2.932,5.89,4.1c0.03,0.01,0.06,0.02,0.09,0.04c-2.139,1.128-4.667,2.034-6.99,1.39c-0.35-0.1-0.58-0.16-0.58-0.17c-0.27-0.12-0.56-0.24-0.87-0.38h-0.01l-0.01-0.01c-0.13-0.07-0.26-0.14-0.4-0.21c0.695,5.608-7.817,10.155-6.88,22.02c0.385,7.301,4.949,29.508,10.686,44.566l0.483,0.144c-2.392-8.626-3.777-16.74-5.569-24.701c-0.156,0-3.073-15.044-3.1-15.21c-2.506-17.631,4.994-18.91,4.85-25.84c3.121,1.561,6.532,0.436,9.18-1.73c-3.118-1.551-2.453-1.988-5.68-3.95c2.163-0.374,4.803,0.483,6.62,0.6c-2.346-2.346-6.299-6.51-8.98-5.94c3.568-2.785,8.497,3.271,13.03,1.46c0-16.383,23.723-19.635,29.77-22.16c7.271-2.766,16.283-9.476,20.939-9.95c-2.44,2.458-5.02,7.901-5.02,12.58c4.834-4.638,5.31-4.615,12.16-12.22c0,6.014-2.247,7.088-4.431,10.97c6.414-3.698,14.179-15.828,26.49-17.63c-5.154,3.037-8.435,8.325-10.41,13.97c2.352-3.059,5.8-6.53,9.63-7.11c-2.009,1.202-6.861,5.782-7.72,13.93c4.345-5.114,11.586-9.346,16.47-10.91c-4.605,3.748-6.368,10.371-7.39,16.22c1.687-2.573,3.357-4.897,5.97-6.54c0.011-0.01,0.03-0.02,0.04-0.02c1.029-0.699,0.76-0.509,2.521-1.39c-0.669,1-0.731,0.87-1.79,3.04c2.426,6.377,10.523,6.413,11.729,17.47c1.857-1.647,2.441-1.944,4.42-3.33c-1.542,2.394-2.784,6.768-3.55,9.32c2.905-2.485,8.279-4.33,10.54-5.15c-3,3.05-5.913,7.096-6.26,11.36c0.614-0.413,1.394-0.74,2.39-1.46c0,2.724,0.13,2.36,0.13,4.16c0.526-0.481,1.72-1.51,2.271-2.11c-0.196,31.716-1.88,25.564-6.311,47.91c-1.658,8.376-2.533,12.25-3.081,14.283l0.428-0.087c3.584-10.751,10.737-35.042,10.414-47.616c-0.033-4.7-1.059-14.5-1.11-15.5c-0.021,0.018-2.084,1.97-2.11,1.97c0-0.511-0.21-2.685-0.21-3.87c-0.353,0.271-1.095,0.778-2.09,1.36C161.758,26.981,163.857,24.394,167.779,19.695z" fill="#000000" stroke-width="none" opacity="1"></path></g><g id="svga-group-glasses-single-move" transform="matrix(1,0,0,1,0,0)"><g id="svga-group-glasses-single" transform="matrix(1,0,0,1,0,0)"><path id="SvgjsPath3733" d="M100,18.13L100,18.13L100,18.13L100,18.13z" fill="#26120b" stroke-width="none" opacity="1" stroke="none"></path></g></g></g></g></g><rect id="svga-credit-rect" width="200" height="15" x="0" y="185" fill="#ecf0f1" opacity="0.5" style="display: none;"></rect><text id="svga-credit-text" font-family="Avenir Next, Roboto, Helvetica, Arial, sans-serif" font-size="10px" text-anchor="start" font-weight="400" size="10px" anchor="start" weight="400" fill="#333333" x="33.3125" y="182.609375" style="display: none;"><tspan id="SvgjsTspan3267" dy="13" x="33.3125">Created on AvatarMaker.com</tspan></text></g></svg>